<mxfile host="app.diagrams.net" agent="Mozilla/5.0 (Windows NT 10.0; Win64; x64) AppleWebKit/537.36 (KHTML, like Gecko) Chrome/132.0.0.0 Safari/537.36 Edg/132.0.0.0" version="27.0.2">
  <diagram name="Page-1" id="gz-QfjbXlikXjazIlR9_">
    <mxGraphModel grid="0" page="0" gridSize="10" guides="1" tooltips="1" connect="1" arrows="1" fold="1" pageScale="1" pageWidth="827" pageHeight="1169" math="0" shadow="0">
      <root>
        <mxCell id="0" />
        <mxCell id="1" parent="0" />
        <mxCell id="FEoMIfNOsacfGY0lLskT-38" value="View" style="html=1;dropTarget=0;whiteSpace=wrap;" vertex="1" parent="1">
          <mxGeometry x="590" y="170" width="180" height="90" as="geometry" />
        </mxCell>
        <mxCell id="FEoMIfNOsacfGY0lLskT-39" value="" style="shape=module;jettyWidth=8;jettyHeight=4;" vertex="1" parent="FEoMIfNOsacfGY0lLskT-38">
          <mxGeometry x="1" width="20" height="20" relative="1" as="geometry">
            <mxPoint x="-27" y="7" as="offset" />
          </mxGeometry>
        </mxCell>
        <mxCell id="FEoMIfNOsacfGY0lLskT-40" value="ViewModel" style="html=1;dropTarget=0;whiteSpace=wrap;" vertex="1" parent="1">
          <mxGeometry x="910" y="171" width="180" height="90" as="geometry" />
        </mxCell>
        <mxCell id="FEoMIfNOsacfGY0lLskT-41" value="" style="shape=module;jettyWidth=8;jettyHeight=4;" vertex="1" parent="FEoMIfNOsacfGY0lLskT-40">
          <mxGeometry x="1" width="20" height="20" relative="1" as="geometry">
            <mxPoint x="-27" y="7" as="offset" />
          </mxGeometry>
        </mxCell>
        <mxCell id="FEoMIfNOsacfGY0lLskT-42" value="Model" style="html=1;dropTarget=0;whiteSpace=wrap;" vertex="1" parent="1">
          <mxGeometry x="1220" y="171" width="180" height="90" as="geometry" />
        </mxCell>
        <mxCell id="FEoMIfNOsacfGY0lLskT-43" value="" style="shape=module;jettyWidth=8;jettyHeight=4;" vertex="1" parent="FEoMIfNOsacfGY0lLskT-42">
          <mxGeometry x="1" width="20" height="20" relative="1" as="geometry">
            <mxPoint x="-27" y="7" as="offset" />
          </mxGeometry>
        </mxCell>
        <mxCell id="FEoMIfNOsacfGY0lLskT-44" value="DLL : Logger" style="html=1;dropTarget=0;whiteSpace=wrap;" vertex="1" parent="1">
          <mxGeometry x="1220" y="324.68" width="180" height="90" as="geometry" />
        </mxCell>
        <mxCell id="FEoMIfNOsacfGY0lLskT-45" value="" style="shape=module;jettyWidth=8;jettyHeight=4;" vertex="1" parent="FEoMIfNOsacfGY0lLskT-44">
          <mxGeometry x="1" width="20" height="20" relative="1" as="geometry">
            <mxPoint x="-27" y="7" as="offset" />
          </mxGeometry>
        </mxCell>
        <mxCell id="FEoMIfNOsacfGY0lLskT-46" value="Actor" style="shape=umlActor;verticalLabelPosition=bottom;verticalAlign=top;html=1;outlineConnect=0;" vertex="1" parent="1">
          <mxGeometry x="450" y="184" width="30" height="60" as="geometry" />
        </mxCell>
        <mxCell id="FEoMIfNOsacfGY0lLskT-47" value="" style="whiteSpace=wrap;html=1;aspect=fixed;" vertex="1" parent="1">
          <mxGeometry x="580" y="204" width="20" height="20" as="geometry" />
        </mxCell>
        <mxCell id="FEoMIfNOsacfGY0lLskT-48" value="&lt;font style=&quot;font-size: 10px;&quot;&gt;CLI&lt;/font&gt;" style="text;html=1;align=center;verticalAlign=middle;whiteSpace=wrap;rounded=0;" vertex="1" parent="1">
          <mxGeometry x="560" y="199" width="60" height="30" as="geometry" />
        </mxCell>
        <mxCell id="FEoMIfNOsacfGY0lLskT-49" value="" style="endArrow=open;html=1;rounded=0;entryX=0;entryY=0.5;entryDx=0;entryDy=0;endFill=0;dashed=1;" edge="1" parent="1" source="FEoMIfNOsacfGY0lLskT-46" target="FEoMIfNOsacfGY0lLskT-47">
          <mxGeometry width="50" height="50" relative="1" as="geometry">
            <mxPoint x="570" y="390" as="sourcePoint" />
            <mxPoint x="620" y="340" as="targetPoint" />
            <Array as="points" />
          </mxGeometry>
        </mxCell>
        <mxCell id="FEoMIfNOsacfGY0lLskT-50" value="Use" style="edgeLabel;html=1;align=center;verticalAlign=middle;resizable=0;points=[];" connectable="0" vertex="1" parent="FEoMIfNOsacfGY0lLskT-49">
          <mxGeometry x="-0.0911" y="1" relative="1" as="geometry">
            <mxPoint as="offset" />
          </mxGeometry>
        </mxCell>
        <mxCell id="7iOw_5FngOYFJy2I7HHK-38" value="" style="whiteSpace=wrap;html=1;aspect=fixed;" vertex="1" parent="1">
          <mxGeometry x="900" y="205" width="20" height="20" as="geometry" />
        </mxCell>
        <mxCell id="FEoMIfNOsacfGY0lLskT-51" value="" style="endArrow=none;html=1;rounded=0;exitX=1;exitY=0.5;exitDx=0;exitDy=0;entryX=0;entryY=0.5;entryDx=0;entryDy=0;" edge="1" parent="1" source="FEoMIfNOsacfGY0lLskT-38" target="FEoMIfNOsacfGY0lLskT-52">
          <mxGeometry width="50" height="50" relative="1" as="geometry">
            <mxPoint x="790" y="330" as="sourcePoint" />
            <mxPoint x="830" y="214" as="targetPoint" />
          </mxGeometry>
        </mxCell>
        <mxCell id="FEoMIfNOsacfGY0lLskT-52" value="" style="ellipse;whiteSpace=wrap;html=1;aspect=fixed;" vertex="1" parent="1">
          <mxGeometry x="830.27" y="210" width="10" height="10" as="geometry" />
        </mxCell>
        <mxCell id="FEoMIfNOsacfGY0lLskT-53" value="" style="endArrow=none;html=1;rounded=0;exitX=0.01;exitY=0.493;exitDx=0;exitDy=0;entryX=0;entryY=0.5;entryDx=0;entryDy=0;exitPerimeter=0;" edge="1" parent="1" source="FEoMIfNOsacfGY0lLskT-54" target="7iOw_5FngOYFJy2I7HHK-38">
          <mxGeometry width="50" height="50" relative="1" as="geometry">
            <mxPoint x="850" y="213.91" as="sourcePoint" />
            <mxPoint x="890" y="213.91" as="targetPoint" />
          </mxGeometry>
        </mxCell>
        <mxCell id="FEoMIfNOsacfGY0lLskT-54" value="" style="verticalLabelPosition=bottom;verticalAlign=top;html=1;shape=mxgraph.basic.arc;startAngle=0.4038731234676706;endAngle=0.1;rotation=-180;" vertex="1" parent="1">
          <mxGeometry x="827" y="207.33999999999997" width="16.53" height="15.32" as="geometry" />
        </mxCell>
        <mxCell id="7iOw_5FngOYFJy2I7HHK-42" value="Data Binding,&amp;nbsp;&lt;div&gt;Commands and&amp;nbsp;&lt;/div&gt;&lt;div&gt;Track Event&lt;/div&gt;" style="text;html=1;align=center;verticalAlign=middle;resizable=0;points=[];autosize=1;strokeColor=none;fillColor=none;" vertex="1" parent="1">
          <mxGeometry x="780.27" y="147.34" width="110" height="60" as="geometry" />
        </mxCell>
        <mxCell id="7iOw_5FngOYFJy2I7HHK-43" value="ViewModel updates&amp;nbsp;&lt;div&gt;the model and&amp;nbsp;&lt;/div&gt;&lt;div&gt;Track events&lt;/div&gt;" style="text;html=1;align=center;verticalAlign=middle;resizable=0;points=[];autosize=1;strokeColor=none;fillColor=none;" vertex="1" parent="1">
          <mxGeometry x="1090" y="150" width="130" height="60" as="geometry" />
        </mxCell>
        <mxCell id="7iOw_5FngOYFJy2I7HHK-49" value="" style="ellipse;whiteSpace=wrap;html=1;aspect=fixed;" vertex="1" parent="1">
          <mxGeometry x="1153.27" y="210" width="10" height="10" as="geometry" />
        </mxCell>
        <mxCell id="7iOw_5FngOYFJy2I7HHK-50" value="" style="endArrow=none;html=1;rounded=0;exitX=0.01;exitY=0.493;exitDx=0;exitDy=0;entryX=0;entryY=0.5;entryDx=0;entryDy=0;exitPerimeter=0;" edge="1" parent="1" source="7iOw_5FngOYFJy2I7HHK-51">
          <mxGeometry width="50" height="50" relative="1" as="geometry">
            <mxPoint x="1170" y="214.91" as="sourcePoint" />
            <mxPoint x="1220" y="215" as="targetPoint" />
          </mxGeometry>
        </mxCell>
        <mxCell id="7iOw_5FngOYFJy2I7HHK-51" value="" style="verticalLabelPosition=bottom;verticalAlign=top;html=1;shape=mxgraph.basic.arc;startAngle=0.4038731234676706;endAngle=0.1;rotation=-180;" vertex="1" parent="1">
          <mxGeometry x="1150" y="207.33999999999997" width="16.53" height="15.32" as="geometry" />
        </mxCell>
        <mxCell id="7iOw_5FngOYFJy2I7HHK-52" value="" style="endArrow=none;html=1;rounded=0;exitX=1;exitY=0.5;exitDx=0;exitDy=0;entryX=0;entryY=0.5;entryDx=0;entryDy=0;" edge="1" parent="1" target="7iOw_5FngOYFJy2I7HHK-49">
          <mxGeometry width="50" height="50" relative="1" as="geometry">
            <mxPoint x="1090" y="215" as="sourcePoint" />
            <mxPoint x="1230" y="224" as="targetPoint" />
          </mxGeometry>
        </mxCell>
        <mxCell id="FEoMIfNOsacfGY0lLskT-60" value="" style="endArrow=none;html=1;rounded=0;exitX=1;exitY=0.5;exitDx=0;exitDy=0;entryX=0;entryY=0.75;entryDx=0;entryDy=0;" edge="1" parent="1" source="7iOw_5FngOYFJy2I7HHK-54" target="FEoMIfNOsacfGY0lLskT-42">
          <mxGeometry width="50" height="50" relative="1" as="geometry">
            <mxPoint x="1161.9544342363279" y="340" as="sourcePoint" />
            <mxPoint x="1220" y="215" as="targetPoint" />
          </mxGeometry>
        </mxCell>
        <mxCell id="7iOw_5FngOYFJy2I7HHK-58" style="rounded=0;orthogonalLoop=1;jettySize=auto;html=1;exitX=0;exitY=0.5;exitDx=0;exitDy=0;entryX=0;entryY=0.5;entryDx=0;entryDy=0;endArrow=none;startFill=0;" edge="1" parent="1" source="7iOw_5FngOYFJy2I7HHK-61" target="FEoMIfNOsacfGY0lLskT-44">
          <mxGeometry relative="1" as="geometry" />
        </mxCell>
        <mxCell id="7iOw_5FngOYFJy2I7HHK-54" value="" style="ellipse;whiteSpace=wrap;html=1;aspect=fixed;rotation=-90;" vertex="1" parent="1">
          <mxGeometry x="1177.73" y="290" width="10" height="10" as="geometry" />
        </mxCell>
        <mxCell id="7iOw_5FngOYFJy2I7HHK-56" value="" style="verticalLabelPosition=bottom;verticalAlign=top;html=1;shape=mxgraph.basic.arc;startAngle=0.4038731234676706;endAngle=0.1;rotation=-90;" vertex="1" parent="1">
          <mxGeometry x="1174.47" y="287.34000000000003" width="16.53" height="15.32" as="geometry" />
        </mxCell>
        <mxCell id="FEoMIfNOsacfGY0lLskT-62" value="Model call logger methods to log messages&amp;nbsp;" style="text;html=1;align=center;verticalAlign=middle;resizable=0;points=[];autosize=1;strokeColor=none;fillColor=none;" vertex="1" parent="1">
          <mxGeometry x="1203" y="282" width="252" height="26" as="geometry" />
        </mxCell>
        <mxCell id="7iOw_5FngOYFJy2I7HHK-57" value="" style="whiteSpace=wrap;html=1;aspect=fixed;" vertex="1" parent="1">
          <mxGeometry x="1210" y="205" width="20" height="20" as="geometry" />
        </mxCell>
        <mxCell id="7iOw_5FngOYFJy2I7HHK-62" value="" style="rounded=0;orthogonalLoop=1;jettySize=auto;html=1;exitX=0.004;exitY=0.502;exitDx=0;exitDy=0;entryX=0;entryY=0;entryDx=0;entryDy=0;endArrow=none;startFill=0;exitPerimeter=0;" edge="1" parent="1" source="7iOw_5FngOYFJy2I7HHK-56" target="7iOw_5FngOYFJy2I7HHK-61">
          <mxGeometry relative="1" as="geometry">
            <mxPoint x="1183" y="300" as="sourcePoint" />
            <mxPoint x="1220" y="370" as="targetPoint" />
          </mxGeometry>
        </mxCell>
        <mxCell id="7iOw_5FngOYFJy2I7HHK-61" value="" style="whiteSpace=wrap;html=1;aspect=fixed;" vertex="1" parent="1">
          <mxGeometry x="1210" y="360" width="20" height="20" as="geometry" />
        </mxCell>
      </root>
    </mxGraphModel>
  </diagram>
</mxfile>
